<svg xmlns="http://www.w3.org/2000/svg" viewBox="0 0 520 110" fill="none">
  <!-- Rhizome — dendritic explosion, chaotic branching clusters -->
  <g transform="translate(50, 55)" stroke-linecap="round">
    <!-- Cluster 1 — upper left, dark purple -->
    <path d="M-10 -15 C-4 -18, 2 -22, 8 -28" stroke="#1a0a2e" stroke-width="1.8"/>
    <path d="M8 -28 C12 -32, 16 -36, 14 -42" stroke="#1a0a2e" stroke-width="1.2"/>
    <path d="M8 -28 C14 -28, 18 -30, 22 -34" stroke="#331c52" stroke-width="1"/>
    <path d="M22 -34 C24 -38, 28 -36, 30 -40" stroke="#331c52" stroke-width="0.7"/>
    <path d="M-10 -15 C-6 -12, 0 -14, 6 -18" stroke="#432568" stroke-width="1.4"/>
    <path d="M6 -18 C10 -22, 8 -26, 12 -24" stroke="#432568" stroke-width="0.9"/>
    <path d="M6 -18 C12 -16, 16 -20, 20 -18" stroke="#553080" stroke-width="0.7"/>
    <path d="M14 -42 C16 -44, 12 -46, 16 -48" stroke="#553080" stroke-width="0.6"/>
    <path d="M14 -42 C18 -44, 22 -42, 24 -46" stroke="#7a5aa0" stroke-width="0.5"/>

    <!-- Cluster 2 — center mass, medium purple, dense -->
    <path d="M0 -4 C8 -8, 16 -6, 24 -10" stroke="#553080" stroke-width="2"/>
    <path d="M24 -10 C30 -14, 36 -10, 42 -14" stroke="#553080" stroke-width="1.5"/>
    <path d="M42 -14 C46 -18, 50 -14, 54 -18" stroke="#7a5aa0" stroke-width="1"/>
    <path d="M54 -18 C58 -22, 56 -26, 60 -28" stroke="#7a5aa0" stroke-width="0.7"/>
    <path d="M54 -18 C58 -16, 62 -18, 66 -14" stroke="#a48cc0" stroke-width="0.5"/>
    <path d="M42 -14 C44 -8, 48 -4, 52 -6" stroke="#7a5aa0" stroke-width="0.8"/>
    <path d="M52 -6 C56 -4, 58 -8, 62 -4" stroke="#a48cc0" stroke-width="0.6"/>
    <path d="M24 -10 C28 -4, 32 -2, 36 -6" stroke="#432568" stroke-width="1.1"/>
    <path d="M36 -6 C40 -2, 44 -4, 48 0" stroke="#553080" stroke-width="0.8"/>
    <path d="M48 0 C52 2, 56 -2, 60 2" stroke="#7a5aa0" stroke-width="0.6"/>
    <path d="M60 2 C64 4, 66 0, 70 4" stroke="#a48cc0" stroke-width="0.5"/>

    <!-- Cluster 3 — lower, spreading right -->
    <path d="M4 8 C12 6, 18 10, 26 8" stroke="#1a0a2e" stroke-width="1.8"/>
    <path d="M26 8 C32 6, 36 10, 42 8" stroke="#331c52" stroke-width="1.4"/>
    <path d="M42 8 C48 6, 52 10, 58 8" stroke="#553080" stroke-width="1"/>
    <path d="M58 8 C62 6, 66 10, 70 8" stroke="#7a5aa0" stroke-width="0.7"/>
    <path d="M70 8 C74 6, 76 10, 80 8" stroke="#a48cc0" stroke-width="0.5"/>
    <path d="M26 8 C30 14, 34 18, 38 16" stroke="#432568" stroke-width="1.1"/>
    <path d="M38 16 C42 20, 46 18, 50 22" stroke="#553080" stroke-width="0.8"/>
    <path d="M50 22 C54 26, 58 22, 62 26" stroke="#7a5aa0" stroke-width="0.6"/>
    <path d="M62 26 C66 28, 68 24, 72 28" stroke="#a48cc0" stroke-width="0.5"/>
    <path d="M42 8 C46 14, 50 12, 54 16" stroke="#7a5aa0" stroke-width="0.7"/>

    <!-- Cluster 4 — bottom left, dangling -->
    <path d="M-6 6 C-4 12, 0 18, -2 24" stroke="#553080" stroke-width="1.6"/>
    <path d="M-2 24 C0 30, -4 34, 0 38" stroke="#7a5aa0" stroke-width="1.1"/>
    <path d="M0 38 C2 42, -2 44, 2 48" stroke="#a48cc0" stroke-width="0.7"/>
    <path d="M-2 24 C4 28, 8 26, 12 30" stroke="#7a5aa0" stroke-width="0.8"/>
    <path d="M12 30 C16 34, 18 30, 22 34" stroke="#a48cc0" stroke-width="0.6"/>
    <path d="M-6 6 C-12 10, -16 8, -20 12" stroke="#432568" stroke-width="1.2"/>
    <path d="M-20 12 C-24 16, -22 20, -26 22" stroke="#7a5aa0" stroke-width="0.8"/>
    <path d="M-26 22 C-28 26, -24 28, -28 32" stroke="#a48cc0" stroke-width="0.5"/>
    <path d="M-20 12 C-18 16, -14 18, -16 22" stroke="#a48cc0" stroke-width="0.6"/>

    <!-- Cluster 5 — far left tendrils -->
    <path d="M-14 -6 C-20 -10, -26 -8, -32 -12" stroke="#1a0a2e" stroke-width="1.4"/>
    <path d="M-32 -12 C-36 -16, -38 -12, -42 -16" stroke="#553080" stroke-width="1"/>
    <path d="M-42 -16 C-44 -20, -40 -22, -44 -24" stroke="#7a5aa0" stroke-width="0.6"/>
    <path d="M-32 -12 C-34 -6, -38 -4, -40 -8" stroke="#7a5aa0" stroke-width="0.7"/>
    <path d="M-14 -6 C-18 -2, -22 -4, -26 0" stroke="#432568" stroke-width="1"/>
    <path d="M-26 0 C-30 2, -34 -2, -36 4" stroke="#7a5aa0" stroke-width="0.6"/>

    <!-- Cluster 6 — top right burst -->
    <path d="M30 -18 C36 -24, 40 -28, 46 -26" stroke="#331c52" stroke-width="1.3"/>
    <path d="M46 -26 C50 -30, 54 -26, 58 -30" stroke="#553080" stroke-width="0.9"/>
    <path d="M58 -30 C62 -34, 60 -38, 64 -40" stroke="#7a5aa0" stroke-width="0.6"/>
    <path d="M46 -26 C50 -22, 54 -24, 56 -20" stroke="#a48cc0" stroke-width="0.6"/>
    <path d="M30 -18 C34 -22, 32 -26, 36 -30" stroke="#553080" stroke-width="0.8"/>
    <path d="M36 -30 C38 -34, 34 -36, 38 -40" stroke="#a48cc0" stroke-width="0.5"/>

    <!-- Stray fragments — lines from nowhere -->
    <path d="M18 -2 C22 -6, 20 -10" stroke="#c9b8db" stroke-width="0.8"/>
    <path d="M34 4 C38 0, 36 -4" stroke="#c9b8db" stroke-width="0.7"/>
    <path d="M10 16 C14 12, 18 16" stroke="#c9b8db" stroke-width="0.7"/>
    <path d="M-8 -22 C-4 -26, -6 -30" stroke="#c9b8db" stroke-width="0.6"/>
    <path d="M66 -8 C70 -12, 74 -8" stroke="#c9b8db" stroke-width="0.6"/>
    <path d="M20 28 C24 24, 28 28" stroke="#c9b8db" stroke-width="0.6"/>
    <path d="M-16 -18 C-12 -22, -16 -26" stroke="#e8dff0" stroke-width="0.5"/>
    <path d="M56 14 C60 10, 64 14" stroke="#e8dff0" stroke-width="0.5"/>
    <path d="M-6 -34 C-2 -36, 2 -34" stroke="#e8dff0" stroke-width="0.5"/>
    <path d="M44 30 C48 28, 50 32" stroke="#e8dff0" stroke-width="0.5"/>
  </g>

  <!-- Wordmark -->
  <text x="145" y="68" font-family="'Plus Jakarta Sans', 'Inter', sans-serif" font-weight="800" font-size="44" fill="#1a0a2e" letter-spacing="-0.03em">rhizoma</text>
</svg>
