<svg xmlns="http://www.w3.org/2000/svg" viewBox="0 0 480 100" fill="none">
  <!-- Rhizome network — Deleuze: non-hierarchical, interconnected, spreading -->
  <g transform="translate(12, 50)">
    <!-- Connection lines (organic, varied thickness) -->
    <path d="M8 0 Q20 -12 32 -8" stroke="#553080" stroke-width="2" fill="none" stroke-linecap="round"/>
    <path d="M8 0 Q14 10 28 12" stroke="#7a5aa0" stroke-width="1.8" fill="none" stroke-linecap="round"/>
    <path d="M32 -8 Q42 -20 56 -18" stroke="#553080" stroke-width="2" fill="none" stroke-linecap="round"/>
    <path d="M32 -8 Q38 2 28 12" stroke="#a48cc0" stroke-width="1.5" fill="none" stroke-linecap="round"/>
    <path d="M28 12 Q40 18 52 10" stroke="#553080" stroke-width="2" fill="none" stroke-linecap="round"/>
    <path d="M28 12 Q22 24 32 30" stroke="#7a5aa0" stroke-width="1.5" fill="none" stroke-linecap="round"/>
    <path d="M56 -18 Q68 -24 78 -14" stroke="#7a5aa0" stroke-width="1.8" fill="none" stroke-linecap="round"/>
    <path d="M56 -18 Q62 -6 52 10" stroke="#a48cc0" stroke-width="1.5" fill="none" stroke-linecap="round"/>
    <path d="M52 10 Q64 6 78 -14" stroke="#553080" stroke-width="1.8" fill="none" stroke-linecap="round"/>
    <path d="M52 10 Q58 22 68 24" stroke="#7a5aa0" stroke-width="1.5" fill="none" stroke-linecap="round"/>
    <path d="M32 30 Q44 28 52 10" stroke="#a48cc0" stroke-width="1.3" fill="none" stroke-linecap="round"/>
    <path d="M78 -14 Q88 -4 82 8" stroke="#a48cc0" stroke-width="1.5" fill="none" stroke-linecap="round"/>
    <path d="M68 24 Q76 16 82 8" stroke="#553080" stroke-width="1.5" fill="none" stroke-linecap="round"/>
    <!-- Extending tendrils -->
    <path d="M8 0 Q2 -8 -4 -14" stroke="#c9b8db" stroke-width="1.2" fill="none" stroke-linecap="round"/>
    <path d="M8 0 Q0 6 -6 12" stroke="#c9b8db" stroke-width="1.2" fill="none" stroke-linecap="round"/>
    <path d="M56 -18 Q54 -28 48 -34" stroke="#c9b8db" stroke-width="1.2" fill="none" stroke-linecap="round"/>
    <path d="M78 -14 Q86 -22 90 -28" stroke="#c9b8db" stroke-width="1.2" fill="none" stroke-linecap="round"/>
    <path d="M32 30 Q28 36 24 40" stroke="#c9b8db" stroke-width="1.2" fill="none" stroke-linecap="round"/>
    <path d="M68 24 Q74 32 80 34" stroke="#c9b8db" stroke-width="1.2" fill="none" stroke-linecap="round"/>
    <path d="M82 8 Q90 10 96 6" stroke="#c9b8db" stroke-width="1.2" fill="none" stroke-linecap="round"/>

    <!-- Nodes — varied sizes, no hierarchy -->
    <circle cx="8" cy="0" r="3.5" fill="#1a0a2e"/>
    <circle cx="32" cy="-8" r="3" fill="#553080"/>
    <circle cx="28" cy="12" r="3" fill="#553080"/>
    <circle cx="56" cy="-18" r="2.5" fill="#7a5aa0"/>
    <circle cx="52" cy="10" r="3.5" fill="#1a0a2e"/>
    <circle cx="78" cy="-14" r="2.5" fill="#553080"/>
    <circle cx="32" cy="30" r="2" fill="#a48cc0"/>
    <circle cx="68" cy="24" r="2.5" fill="#7a5aa0"/>
    <circle cx="82" cy="8" r="2" fill="#a48cc0"/>
    <!-- Tendril endpoints -->
    <circle cx="-4" cy="-14" r="1.5" fill="#c9b8db"/>
    <circle cx="-6" cy="12" r="1.5" fill="#c9b8db"/>
    <circle cx="48" cy="-34" r="1.5" fill="#c9b8db"/>
    <circle cx="90" cy="-28" r="1.5" fill="#c9b8db"/>
    <circle cx="24" cy="40" r="1.5" fill="#c9b8db"/>
    <circle cx="80" cy="34" r="1.5" fill="#c9b8db"/>
    <circle cx="96" cy="6" r="1.5" fill="#c9b8db"/>
  </g>

  <!-- Wordmark -->
  <text x="130" y="64" font-family="'Plus Jakarta Sans', 'Inter', sans-serif" font-weight="800" font-size="44" fill="#1a0a2e" letter-spacing="-0.03em">rhizoma</text>
</svg>
