<svg xmlns="http://www.w3.org/2000/svg" viewBox="0 0 100 100" fill="none">
  <g transform="translate(50, 50)">
    <!-- Connection lines -->
    <path d="M-8 -2 Q-2 -16 14 -12" stroke="#553080" stroke-width="2.5" fill="none" stroke-linecap="round"/>
    <path d="M-8 -2 Q-4 10 8 14" stroke="#7a5aa0" stroke-width="2.2" fill="none" stroke-linecap="round"/>
    <path d="M14 -12 Q24 -24 36 -20" stroke="#553080" stroke-width="2.5" fill="none" stroke-linecap="round"/>
    <path d="M14 -12 Q18 2 8 14" stroke="#a48cc0" stroke-width="1.8" fill="none" stroke-linecap="round"/>
    <path d="M8 14 Q20 20 30 10" stroke="#553080" stroke-width="2.2" fill="none" stroke-linecap="round"/>
    <path d="M8 14 Q2 26 10 32" stroke="#7a5aa0" stroke-width="1.8" fill="none" stroke-linecap="round"/>
    <path d="M36 -20 Q44 -10 38 0" stroke="#7a5aa0" stroke-width="2" fill="none" stroke-linecap="round"/>
    <path d="M36 -20 Q40 -8 30 10" stroke="#a48cc0" stroke-width="1.8" fill="none" stroke-linecap="round"/>
    <path d="M30 10 Q36 18 38 0" stroke="#553080" stroke-width="1.8" fill="none" stroke-linecap="round"/>
    <!-- Tendrils -->
    <path d="M-8 -2 Q-18 -10 -24 -16" stroke="#c9b8db" stroke-width="1.5" fill="none" stroke-linecap="round"/>
    <path d="M-8 -2 Q-16 6 -22 14" stroke="#c9b8db" stroke-width="1.5" fill="none" stroke-linecap="round"/>
    <path d="M36 -20 Q34 -30 28 -36" stroke="#c9b8db" stroke-width="1.5" fill="none" stroke-linecap="round"/>
    <path d="M38 0 Q44 6 42 16" stroke="#c9b8db" stroke-width="1.5" fill="none" stroke-linecap="round"/>
    <path d="M10 32 Q16 36 22 38" stroke="#c9b8db" stroke-width="1.5" fill="none" stroke-linecap="round"/>
    <!-- Nodes -->
    <circle cx="-8" cy="-2" r="4" fill="#1a0a2e"/>
    <circle cx="14" cy="-12" r="3.5" fill="#553080"/>
    <circle cx="8" cy="14" r="3.5" fill="#553080"/>
    <circle cx="36" cy="-20" r="3" fill="#7a5aa0"/>
    <circle cx="30" cy="10" r="4" fill="#1a0a2e"/>
    <circle cx="38" cy="0" r="2.5" fill="#a48cc0"/>
    <circle cx="10" cy="32" r="2.5" fill="#7a5aa0"/>
    <!-- Tendril endpoints -->
    <circle cx="-24" cy="-16" r="2" fill="#c9b8db"/>
    <circle cx="-22" cy="14" r="2" fill="#c9b8db"/>
    <circle cx="28" cy="-36" r="2" fill="#c9b8db"/>
    <circle cx="42" cy="16" r="2" fill="#c9b8db"/>
    <circle cx="22" cy="38" r="2" fill="#c9b8db"/>
  </g>
</svg>
