<svg xmlns="http://www.w3.org/2000/svg" viewBox="0 0 100 100" fill="none">
  <g transform="translate(50, 50)" stroke-linecap="round">
    <!-- Dense dendritic cluster -->
    <path d="M-8 -4 C0 -8, 8 -6, 16 -10" stroke="#1a0a2e" stroke-width="2.2"/>
    <path d="M16 -10 C22 -14, 28 -10, 34 -14" stroke="#553080" stroke-width="1.6"/>
    <path d="M34 -14 C38 -18, 36 -22, 40 -24" stroke="#7a5aa0" stroke-width="1"/>
    <path d="M34 -14 C38 -12, 42 -14, 44 -10" stroke="#a48cc0" stroke-width="0.7"/>
    <path d="M16 -10 C20 -4, 24 -2, 28 -6" stroke="#432568" stroke-width="1.2"/>
    <path d="M28 -6 C32 -2, 36 -4, 40 0" stroke="#553080" stroke-width="0.8"/>
    <path d="M40 0 C42 4, 38 6, 42 8" stroke="#a48cc0" stroke-width="0.5"/>
    <path d="M-8 -4 C-4 2, 2 6, 8 4" stroke="#553080" stroke-width="1.8"/>
    <path d="M8 4 C14 2, 18 6, 24 4" stroke="#432568" stroke-width="1.3"/>
    <path d="M24 4 C30 2, 34 6, 38 4" stroke="#7a5aa0" stroke-width="0.9"/>
    <path d="M8 4 C12 10, 16 14, 20 12" stroke="#7a5aa0" stroke-width="1"/>
    <path d="M20 12 C24 16, 28 12, 32 16" stroke="#a48cc0" stroke-width="0.7"/>
    <path d="M-8 -4 C-14 -8, -20 -6, -26 -10" stroke="#331c52" stroke-width="1.5"/>
    <path d="M-26 -10 C-30 -14, -28 -18, -32 -20" stroke="#7a5aa0" stroke-width="0.9"/>
    <path d="M-26 -10 C-28 -4, -32 -2, -34 -6" stroke="#a48cc0" stroke-width="0.6"/>
    <path d="M-8 -4 C-10 4, -6 10, -8 16" stroke="#432568" stroke-width="1.3"/>
    <path d="M-8 16 C-6 22, -10 26, -6 30" stroke="#7a5aa0" stroke-width="0.8"/>
    <path d="M-6 30 C-4 34, -8 36, -4 40" stroke="#a48cc0" stroke-width="0.5"/>
    <path d="M-8 16 C-14 20, -18 18, -22 22" stroke="#a48cc0" stroke-width="0.6"/>
    <path d="M-2 -16 C2 -20, 6 -18, 10 -22" stroke="#1a0a2e" stroke-width="1.4"/>
    <path d="M10 -22 C14 -26, 12 -30, 16 -34" stroke="#553080" stroke-width="0.9"/>
    <path d="M10 -22 C16 -22, 20 -26, 24 -24" stroke="#7a5aa0" stroke-width="0.7"/>
    <path d="M16 -34 C18 -38, 14 -40, 18 -42" stroke="#a48cc0" stroke-width="0.5"/>
    <!-- Stray fragments -->
    <path d="M4 -10 C8 -14, 6 -18" stroke="#c9b8db" stroke-width="0.7"/>
    <path d="M18 8 C22 4, 26 8" stroke="#c9b8db" stroke-width="0.6"/>
    <path d="M-18 6 C-22 2, -24 6" stroke="#c9b8db" stroke-width="0.6"/>
    <path d="M30 -22 C34 -26, 32 -30" stroke="#e8dff0" stroke-width="0.5"/>
    <path d="M-14 -20 C-10 -24, -14 -28" stroke="#e8dff0" stroke-width="0.5"/>
    <path d="M12 20 C16 18, 18 22" stroke="#e8dff0" stroke-width="0.5"/>
  </g>
</svg>
